<?xml version="1.0" encoding="UTF-8" standalone="no"?>
<!-- Created with Inkscape (http://www.inkscape.org/) -->

<svg
    version="1.1"
    id="svg630"
    xml:space="preserve"
    width="1333.3333"
    height="836.08398"
    viewBox="0 0 1333.3333 836.08398"
    sodipodi:docname="shellpad_shell.svg"
    inkscape:version="1.1.2 (b8e25be833, 2022-02-05)"
    xmlns:inkscape="http://www.inkscape.org/namespaces/inkscape"
    xmlns:sodipodi="http://sodipodi.sourceforge.net/DTD/sodipodi-0.dtd"
    xmlns="http://www.w3.org/2000/svg"
    xmlns:svg="http://www.w3.org/2000/svg"><defs
     id="defs634"><clipPath
       clipPathUnits="userSpaceOnUse"
       id="clipPath644"><path
         d="M 0,627.063 H 1000 V 0 H 0 Z"
         id="path642" /></clipPath></defs><sodipodi:namedview
     id="namedview632"
     pagecolor="#505050"
     bordercolor="#eeeeee"
     borderopacity="1"
     inkscape:pageshadow="0"
     inkscape:pageopacity="0"
     inkscape:pagecheckerboard="0"
     showgrid="false"
     inkscape:zoom="0.83925005"
     inkscape:cx="666.66663"
     inkscape:cy="418.23054"
     inkscape:window-width="1332"
     inkscape:window-height="1061"
     inkscape:window-x="219"
     inkscape:window-y="0"
     inkscape:window-maximized="0"
     inkscape:current-layer="g636" /><g
     id="g636"
     inkscape:groupmode="layer"
     inkscape:label="shellpad - Artwork"
     transform="matrix(1.3333333,0,0,-1.3333333,0,836.084)"><g
       id="g638"><g
         id="g640"
         clip-path="url(#clipPath644)"><g
           id="g646"
           transform="translate(957.3665,322.144)"><path
             d="M 0,0 C 1.024,-5.989 1.599,-12.047 1.711,-18.148 1.557,-12.173 0.982,-6.115 0,0"
             style="fill:#385b21;fill-opacity:1;fill-rule:nonzero;stroke:none"
             id="path648" /></g><g
           id="g650"
           transform="translate(959.0774,301.3453)"><path
             d="M 0,0 V -0.266 C 0,0.701 -0.014,1.669 -0.042,2.651 -0.014,1.767 0,0.884 0,0"
             style="fill:#385b21;fill-opacity:1;fill-rule:nonzero;stroke:none"
             id="path652" /></g><g
           id="g654"
           transform="translate(964.7019,265.228)"><path
             d="m 0,0 c 0,-0.092 0,-0.171 -0.013,-0.263 -0.54,-127.281 -208.383,-230.367 -464.695,-230.367 -256.3,0 -464.143,103.086 -464.683,230.367 -0.013,0.092 -0.013,0.171 -0.013,0.263 0,0.908 0.013,1.817 0.04,2.738 0.145,5.608 0.684,11.295 1.606,17.034 19.943,124.319 219.638,273.557 463.05,273.557 243.424,0 443.119,-149.238 463.062,-273.557 C -0.724,14.033 -0.184,8.346 -0.04,2.738 -0.013,1.817 0,0.908 0,0"
             style="fill:#2e5117;fill-opacity:1;fill-rule:nonzero;stroke:none"
             id="path656" /></g><g
           id="g658"
           transform="translate(964.7019,265.228)"><path
             d="m 0,0 c 0,-0.092 0,-0.171 -0.013,-0.263 -0.54,-127.281 -208.383,-230.367 -464.695,-230.367 -256.3,0 -464.143,103.086 -464.683,230.367 -0.013,0.092 -0.013,0.171 -0.013,0.263 0,0.908 0.013,1.817 0.04,2.738 0.145,5.608 0.684,11.295 1.606,17.034 19.943,124.319 219.638,273.557 463.05,273.557 243.424,0 443.119,-149.238 463.062,-273.557 C -0.724,14.033 -0.184,8.346 -0.04,2.738 -0.013,1.817 0,0.908 0,0 Z"
             style="fill:none;stroke:#3a3a3a;stroke-width:4;stroke-linecap:butt;stroke-linejoin:miter;stroke-miterlimit:10;stroke-dasharray:none;stroke-opacity:1"
             id="path660" /></g><g
           id="g662"
           transform="translate(957.717,307.7733)"><path
             d="m 0,0 c 0,-0.091 0,-0.169 -0.013,-0.259 -0.532,-125.368 -205.251,-226.904 -457.71,-226.904 -252.447,0 -457.167,101.536 -457.698,226.904 -0.013,0.09 -0.013,0.168 -0.013,0.259 0,0.895 0.013,1.789 0.039,2.697 0.143,5.523 0.674,11.125 1.582,16.778 19.643,122.45 216.336,269.445 456.09,269.445 239.765,0 436.459,-146.995 456.102,-269.445 C -0.713,13.822 -0.181,8.22 -0.039,2.697 -0.013,1.789 0,0.895 0,0"
             style="fill:#578937;fill-opacity:1;fill-rule:nonzero;stroke:none"
             id="path664" /></g><g
           id="g666"
           transform="translate(957.717,307.7733)"><path
             d="m 0,0 c 0,-0.091 0,-0.169 -0.013,-0.259 -0.532,-125.368 -205.251,-226.904 -457.71,-226.904 -252.447,0 -457.167,101.536 -457.698,226.904 -0.013,0.09 -0.013,0.168 -0.013,0.259 0,0.895 0.013,1.789 0.039,2.697 0.143,5.523 0.674,11.125 1.582,16.778 19.643,122.45 216.336,269.445 456.09,269.445 239.765,0 436.459,-146.995 456.102,-269.445 C -0.713,13.822 -0.181,8.22 -0.039,2.697 -0.013,1.789 0,0.895 0,0 Z"
             style="fill:none;stroke:#3a3a3a;stroke-width:4;stroke-linecap:butt;stroke-linejoin:miter;stroke-miterlimit:10;stroke-dasharray:none;stroke-opacity:1"
             id="path668" /></g><g
           id="g670"
           transform="translate(959.1195,301.0788)"><path
             d="M 0,0 V -0.28 H -0.014 C 0,-0.182 0,-0.098 0,0"
             style="fill:#385b21;fill-opacity:1;fill-rule:nonzero;stroke:none"
             id="path672" /></g><g
           id="g674"
           transform="translate(946.4551,313.07)"><path
             d="m 0,0 c 0,49.387 -55.398,136.39 -175.17,206.41 -111.28,65.056 -189.309,78.337 -189.309,28.95 0,-49.386 81.725,-136.382 193.022,-201.407 C -64.456,-28.562 0,-49.387 0,0"
             style="fill:#578937;fill-opacity:1;fill-rule:nonzero;stroke:none"
             id="path676" /></g><g
           id="g678"
           transform="translate(946.4551,313.07)"><path
             d="m 0,0 c 0,49.387 -55.398,136.39 -175.17,206.41 -111.28,65.056 -189.309,78.337 -189.309,28.95 0,-49.386 81.725,-136.382 193.022,-201.407 C -64.456,-28.562 0,-49.387 0,0 Z"
             style="fill:none;stroke:#3a3a3a;stroke-width:4;stroke-linecap:butt;stroke-linejoin:miter;stroke-miterlimit:10;stroke-dasharray:none;stroke-opacity:1"
             id="path680" /></g><g
           id="g682"
           transform="translate(54.6465,313.07)"><path
             d="m 0,0 c 0,49.387 55.398,136.39 175.17,206.41 111.28,65.056 189.309,78.337 189.309,28.95 0,-49.386 -81.725,-136.382 -193.022,-201.407 C 64.456,-28.562 0,-49.387 0,0"
             style="fill:#578937;fill-opacity:1;fill-rule:nonzero;stroke:none"
             id="path684" /></g><g
           id="g686"
           transform="translate(54.6465,313.07)"><path
             d="m 0,0 c 0,49.387 55.398,136.39 175.17,206.41 111.28,65.056 189.309,78.337 189.309,28.95 0,-49.386 -81.725,-136.382 -193.022,-201.407 C 64.456,-28.562 0,-49.387 0,0 Z"
             style="fill:none;stroke:#3a3a3a;stroke-width:4;stroke-linecap:butt;stroke-linejoin:miter;stroke-miterlimit:10;stroke-dasharray:none;stroke-opacity:1"
             id="path688" /></g><g
           id="g690"
           transform="translate(936.8902,290.0694)"><path
             d="m 0,0 c -1.473,-1.024 -3.099,-1.851 -4.895,-2.51 l -153.837,-78.861 -273.482,95.298 -281.897,-95.298 -0.673,0.35 -151.425,77.613 c -4.025,0.982 -7.391,2.679 -10.042,5.147 l -0.028,0.014 c -4.852,4.488 -7.363,11.5 -7.363,21.247 0,49.382 55.398,136.391 175.169,206.416 82.437,48.189 146.629,67.964 174.356,54.893 l 0.027,-0.014 0.043,-0.014 101.833,-38.231 0.463,-0.168 89.954,37.488 0.014,0.014 c 1.978,1.108 4.166,2.019 6.55,2.734 29.887,9.074 91.567,-11.079 169.629,-56.702 C -45.833,159.391 9.565,72.382 9.565,23 9.565,11.879 6.297,4.32 0,0 m 20.785,20.406 c -0.141,5.512 -0.673,11.122 -1.585,16.773 -19.635,122.45 -216.331,269.444 -456.098,269.444 -239.753,0 -436.45,-146.994 -456.084,-269.444 -0.912,-5.651 -1.445,-11.261 -1.585,-16.773 -0.028,-0.912 -0.042,-1.809 -0.042,-2.707 0,-0.084 0,-0.168 0.014,-0.252 0.28,-65.285 55.93,-124.119 144.875,-165.506 81.835,-38.077 191.844,-61.4 312.822,-61.4 121.131,0 231.282,23.379 313.144,61.554 88.762,41.373 144.286,100.137 144.567,165.352 0.014,0.084 0.014,0.168 0.014,0.252 0,0.898 -0.014,1.795 -0.042,2.707"
             style="fill:#416629;fill-opacity:1;fill-rule:nonzero;stroke:none"
             id="path692" /></g><g
           id="g694"
           transform="translate(936.8902,290.0694)"><path
             d="m 0,0 c -1.473,-1.024 -3.099,-1.851 -4.895,-2.51 l -153.837,-78.861 -273.482,95.298 -281.897,-95.298 -0.673,0.35 -151.425,77.613 c -4.025,0.982 -7.391,2.679 -10.042,5.147 l -0.028,0.014 c -4.852,4.488 -7.363,11.5 -7.363,21.247 0,49.382 55.398,136.391 175.169,206.416 82.437,48.189 146.629,67.964 174.356,54.893 l 0.027,-0.014 0.043,-0.014 101.833,-38.231 0.463,-0.168 89.954,37.488 0.014,0.014 c 1.978,1.108 4.166,2.019 6.55,2.734 29.887,9.074 91.567,-11.079 169.629,-56.702 C -45.833,159.391 9.565,72.382 9.565,23 9.565,11.879 6.297,4.32 0,0 Z m 20.785,20.406 c -0.141,5.512 -0.673,11.122 -1.585,16.773 -19.635,122.45 -216.331,269.444 -456.098,269.444 -239.753,0 -436.45,-146.994 -456.084,-269.444 -0.912,-5.651 -1.445,-11.261 -1.585,-16.773 -0.028,-0.912 -0.042,-1.809 -0.042,-2.707 0,-0.084 0,-0.168 0.014,-0.252 0.28,-65.285 55.93,-124.119 144.875,-165.506 81.835,-38.077 191.844,-61.4 312.822,-61.4 121.131,0 231.282,23.379 313.144,61.554 88.762,41.373 144.286,100.137 144.567,165.352 0.014,0.084 0.014,0.168 0.014,0.252 0,0.898 -0.014,1.795 -0.042,2.707 z"
             style="fill:none;stroke:#3a3a3a;stroke-width:4;stroke-linecap:butt;stroke-linejoin:miter;stroke-miterlimit:10;stroke-dasharray:none;stroke-opacity:1"
             id="path696" /></g><g
           id="g698"
           transform="translate(774.1021,462.8563)"><path
             d="m 0,0 c 20.205,-11.518 35.787,-11.415 35.787,0.103 0,1.641 0.454,3.328 -0.175,5.218 V 27.276 L -35.914,68.122 V 41.067 l -0.299,-0.195 C -35.459,29.303 -19.724,11.244 0,0"
             style="fill:#73ad4e;fill-opacity:1;fill-rule:nonzero;stroke:none"
             id="path700" /></g><g
           id="g702"
           transform="translate(774.1021,462.8563)"><path
             d="m 0,0 c 20.205,-11.518 35.787,-11.415 35.787,0.103 0,1.641 0.454,3.328 -0.175,5.218 V 27.276 L -35.914,68.122 V 41.067 l -0.299,-0.195 C -35.459,29.303 -19.724,11.244 0,0 Z"
             style="fill:none;stroke:#3a3a3a;stroke-width:5;stroke-linecap:butt;stroke-linejoin:miter;stroke-miterlimit:10;stroke-dasharray:none;stroke-opacity:1"
             id="path704" /></g><g
           id="g706"
           transform="translate(892.46,397.5689)"><path
             d="M 0,0 -72.929,41.08 V 17.667 c -0.402,-1.009 -0.622,-2.158 -0.622,-3.463 0,-11.518 16.379,-30.192 36.583,-41.709 20.205,-11.518 36.584,-11.518 36.584,0 0,0.359 0.384,0.858 0.384,0.858 z"
             style="fill:#416629;fill-opacity:1;fill-rule:nonzero;stroke:none"
             id="path708" /></g><g
           id="g710"
           transform="translate(892.46,397.5689)"><path
             d="M 0,0 -72.929,41.08 V 17.667 c -0.402,-1.009 -0.622,-2.158 -0.622,-3.463 0,-11.518 16.379,-30.192 36.583,-41.709 20.205,-11.518 36.584,-11.518 36.584,0 0,0.359 0.384,0.858 0.384,0.858 z"
             style="fill:none;stroke:#3a3a3a;stroke-width:5;stroke-linecap:butt;stroke-linejoin:miter;stroke-miterlimit:10;stroke-dasharray:none;stroke-opacity:1"
             id="path712" /></g><g
           id="g714"
           transform="translate(738.188,415.3586)"><path
             d="m 0,0 c -0.434,-1.037 -0.67,-2.229 -0.67,-3.586 0,-11.518 16.379,-30.191 36.584,-41.709 20.205,-11.518 36.584,-11.518 36.584,0 0,0.368 0.431,0.858 0.431,0.858 V -17.79 L 0,23.291 Z"
             style="fill:#416629;fill-opacity:1;fill-rule:nonzero;stroke:none"
             id="path716" /></g><g
           id="g718"
           transform="translate(738.188,415.3586)"><path
             d="m 0,0 c -0.434,-1.037 -0.67,-2.229 -0.67,-3.586 0,-11.518 16.379,-30.191 36.584,-41.709 20.205,-11.518 36.584,-11.518 36.584,0 0,0.368 0.431,0.858 0.431,0.858 V -17.79 L 0,23.291 Z"
             style="fill:none;stroke:#3a3a3a;stroke-width:5;stroke-linecap:butt;stroke-linejoin:miter;stroke-miterlimit:10;stroke-dasharray:none;stroke-opacity:1"
             id="path720" /></g><g
           id="g722"
           transform="translate(656.8445,508.2743)"><path
             d="m 0,0 c -0.468,-1.065 -0.716,-2.299 -0.716,-3.709 0,-11.518 16.379,-30.191 36.583,-41.709 20.205,-11.518 36.584,-11.518 36.584,0 0,0.3 0.478,0.629 0.478,0.629 v 26.647 L 0,22.938 Z"
             style="fill:#73ad4e;fill-opacity:1;fill-rule:nonzero;stroke:none"
             id="path724" /></g><g
           id="g726"
           transform="translate(656.8445,508.2743)"><path
             d="m 0,0 c -0.468,-1.065 -0.716,-2.299 -0.716,-3.709 0,-11.518 16.379,-30.191 36.583,-41.709 20.205,-11.518 36.584,-11.518 36.584,0 0,0.3 0.478,0.629 0.478,0.629 v 26.647 L 0,22.938 Z"
             style="fill:none;stroke:#3a3a3a;stroke-width:5;stroke-linecap:butt;stroke-linejoin:miter;stroke-miterlimit:10;stroke-dasharray:none;stroke-opacity:1"
             id="path728" /></g><g
           id="g730"
           transform="translate(810.6859,396.7105)"><path
             d="m 0,0 c 0,-11.518 -16.379,-11.518 -36.584,0 -20.204,11.518 -36.583,30.191 -36.583,41.709 0,11.518 16.379,11.518 36.583,0 C -16.379,30.191 0,11.518 0,0"
             style="fill:#73ad4e;fill-opacity:1;fill-rule:nonzero;stroke:none"
             id="path732" /></g><g
           id="g734"
           transform="translate(810.6859,396.7105)"><path
             d="m 0,0 c 0,-11.518 -16.379,-11.518 -36.584,0 -20.204,11.518 -36.583,30.191 -36.583,41.709 0,11.518 16.379,11.518 36.583,0 C -16.379,30.191 0,11.518 0,0 Z"
             style="fill:none;stroke:#3a3a3a;stroke-width:5;stroke-linecap:butt;stroke-linejoin:miter;stroke-miterlimit:10;stroke-dasharray:none;stroke-opacity:1"
             id="path736" /></g><g
           id="g738"
           transform="translate(892.0761,396.7105)"><path
             d="m 0,0 c 0,-11.518 -16.379,-11.518 -36.584,0 -20.204,11.518 -36.583,30.191 -36.583,41.709 0,11.518 16.379,11.518 36.583,0 C -16.379,30.191 0,11.518 0,0"
             style="fill:#73ad4e;fill-opacity:1;fill-rule:nonzero;stroke:none"
             id="path740" /></g><g
           id="g742"
           transform="translate(892.0761,396.7105)"><path
             d="m 0,0 c 0,-11.518 -16.379,-11.518 -36.584,0 -20.204,11.518 -36.583,30.191 -36.583,41.709 0,11.518 16.379,11.518 36.583,0 C -16.379,30.191 0,11.518 0,0 Z"
             style="fill:none;stroke:#3a3a3a;stroke-width:5;stroke-linecap:butt;stroke-linejoin:miter;stroke-miterlimit:10;stroke-dasharray:none;stroke-opacity:1"
             id="path744" /></g><g
           id="g746"
           transform="translate(810.6859,489.5033)"><path
             d="m 0,0 c 0,-11.518 -16.379,-11.518 -36.584,0 -20.204,11.518 -36.583,30.191 -36.583,41.709 0,11.518 16.379,11.518 36.583,0 C -16.379,30.191 0,11.518 0,0"
             style="fill:#ebf7e4;fill-opacity:1;fill-rule:nonzero;stroke:none"
             id="path748" /></g><g
           id="g750"
           transform="translate(810.6859,489.5033)"><path
             d="m 0,0 c 0,-11.518 -16.379,-11.518 -36.584,0 -20.204,11.518 -36.583,30.191 -36.583,41.709 0,11.518 16.379,11.518 36.583,0 C -16.379,30.191 0,11.518 0,0 Z"
             style="fill:none;stroke:#3a3a3a;stroke-width:5;stroke-linecap:butt;stroke-linejoin:miter;stroke-miterlimit:10;stroke-dasharray:none;stroke-opacity:1"
             id="path752" /></g><g
           id="g754"
           transform="translate(729.2955,489.5033)"><path
             d="m 0,0 c 0,-11.518 -16.379,-11.518 -36.584,0 -20.204,11.518 -36.583,30.191 -36.583,41.709 0,11.518 16.379,11.518 36.583,0 C -16.379,30.191 0,11.518 0,0"
             style="fill:#ebf7e4;fill-opacity:1;fill-rule:nonzero;stroke:none"
             id="path756" /></g><g
           id="g758"
           transform="translate(729.2955,489.5033)"><path
             d="m 0,0 c 0,-11.518 -16.379,-11.518 -36.584,0 -20.204,11.518 -36.583,30.191 -36.583,41.709 0,11.518 16.379,11.518 36.583,0 C -16.379,30.191 0,11.518 0,0 Z"
             style="fill:none;stroke:#3a3a3a;stroke-width:5;stroke-linecap:butt;stroke-linejoin:miter;stroke-miterlimit:10;stroke-dasharray:none;stroke-opacity:1"
             id="path760" /></g><g
           id="g762"
           transform="translate(259.9448,464.1751)"><path
             d="m 0,0 v 10.873 c 0,3.294 -3.537,3.516 -8.931,0.111 l -51.077,-31.979 c -5.394,-3.404 -10.116,-9.154 -10.116,-12.448 v -11.126 l -68.721,-43.678 v 11.823 c 0,0 0.025,0.007 0.044,0.013 -0.024,-0.18 -0.044,-0.358 -0.044,-0.527 v -30.944 c 0,-3.294 4.603,-2.884 9.997,0.521 l 58.724,37.198 v -35.999 c 0,-3.294 5.175,-3.834 10.569,-0.43 l 50.194,31.98 C -3.967,-71.208 0,-65.14 0,-61.846 v 35.999 l 58.428,37.118 c 5.394,3.404 8.891,8.486 8.891,11.781 v 0.1 30.844 -11.209 z"
             style="fill:#73ad4e;fill-opacity:1;fill-rule:nonzero;stroke:none"
             id="path764" /></g><g
           id="g766"
           transform="translate(259.9448,464.1751)"><path
             d="m 0,0 v 10.873 c 0,3.294 -3.537,3.516 -8.931,0.111 l -51.077,-31.979 c -5.394,-3.404 -10.116,-9.154 -10.116,-12.448 v -11.126 l -68.721,-43.678 v 11.823 c 0,0 0.025,0.007 0.044,0.013 -0.024,-0.18 -0.044,-0.358 -0.044,-0.527 v -30.944 c 0,-3.294 4.603,-2.884 9.997,0.521 l 58.724,37.198 v -35.999 c 0,-3.294 5.175,-3.834 10.569,-0.43 l 50.194,31.98 C -3.967,-71.208 0,-65.14 0,-61.846 v 35.999 l 58.428,37.118 c 5.394,3.404 8.891,8.486 8.891,11.781 v 0.1 30.844 -11.209 z"
             style="fill:none;stroke:#3a3a3a;stroke-width:5;stroke-linecap:butt;stroke-linejoin:miter;stroke-miterlimit:10;stroke-dasharray:none;stroke-opacity:1"
             id="path768" /></g><g
           id="g770"
           transform="translate(318.3724,546.0527)"><path
             d="m 0,0 -58.428,-37.118 v 36.237 c 0,3.294 -3.537,3.516 -8.931,0.111 l -51.077,-31.979 c -5.394,-3.404 -10.115,-9.154 -10.115,-12.448 v -36.237 l -58.725,-37.199 c -5.394,-3.404 -9.996,-8.839 -9.996,-12.133 v -30.944 c 0,-3.294 4.602,-2.884 9.996,0.52 l 58.725,37.199 v -35.999 c 0,-3.294 5.174,-3.834 10.568,-0.43 l 50.195,31.979 c 5.394,3.405 9.36,9.473 9.36,12.767 v 35.999 L 0,-42.557 c 5.394,3.404 8.891,8.486 8.891,11.78 V 0.168 C 8.891,3.462 5.394,3.404 0,0"
             style="fill:#ebf7e4;fill-opacity:1;fill-rule:nonzero;stroke:none"
             id="path772" /></g><g
           id="g774"
           transform="translate(318.3724,546.0527)"><path
             d="m 0,0 -58.428,-37.118 v 36.237 c 0,3.294 -3.537,3.516 -8.931,0.111 l -51.077,-31.979 c -5.394,-3.404 -10.115,-9.154 -10.115,-12.448 v -36.237 l -58.725,-37.199 c -5.394,-3.404 -9.996,-8.839 -9.996,-12.133 v -30.944 c 0,-3.294 4.602,-2.884 9.996,0.52 l 58.725,37.199 v -35.999 c 0,-3.294 5.174,-3.834 10.568,-0.43 l 50.195,31.979 c 5.394,3.405 9.36,9.473 9.36,12.767 v 35.999 L 0,-42.557 c 5.394,3.404 8.891,8.486 8.891,11.78 V 0.168 C 8.891,3.462 5.394,3.404 0,0 Z"
             style="fill:none;stroke:#3a3a3a;stroke-width:5;stroke-linecap:butt;stroke-linejoin:miter;stroke-miterlimit:10;stroke-dasharray:none;stroke-opacity:1"
             id="path776" /></g><g
           id="g778"
           transform="translate(504.6763,596.72)"><path
             d="M 0,0 V -292.724 -516.11"
             style="fill:none;stroke:#3a3a3a;stroke-width:6;stroke-linecap:butt;stroke-linejoin:miter;stroke-miterlimit:10;stroke-dasharray:none;stroke-opacity:1"
             id="path780" /></g><g
           id="g782"
           transform="translate(187.1691,142.0141)"><path
             d="M 0,0 35.61,66.221"
             style="fill:none;stroke:#3a3a3a;stroke-width:6;stroke-linecap:butt;stroke-linejoin:miter;stroke-miterlimit:10;stroke-dasharray:none;stroke-opacity:1"
             id="path784" /></g><g
           id="g786"
           transform="translate(813.2203,142.0141)"><path
             d="M 0,0 -35.61,66.688"
             style="fill:none;stroke:#3a3a3a;stroke-width:6;stroke-linecap:butt;stroke-linejoin:miter;stroke-miterlimit:10;stroke-dasharray:none;stroke-opacity:1"
             id="path788" /></g></g></g></g></svg>