<?xml version="1.0" encoding="UTF-8" standalone="no"?>
<!-- Created with Inkscape (http://www.inkscape.org/) -->

<svg
   version="1.1"
   id="svg258"
   xml:space="preserve"
   width="1127.0077"
   height="612.63562"
   viewBox="0 0 1127.0077 612.63562"
   sodipodi:docname="shellpad_full.svg"
   inkscape:version="1.1.2 (b8e25be833, 2022-02-05)"
   xmlns:inkscape="http://www.inkscape.org/namespaces/inkscape"
   xmlns:sodipodi="http://sodipodi.sourceforge.net/DTD/sodipodi-0.dtd"
   xmlns="http://www.w3.org/2000/svg"
   xmlns:svg="http://www.w3.org/2000/svg"><defs
     id="defs262"><clipPath
       clipPathUnits="userSpaceOnUse"
       id="clipPath272"><path
         d="M 0,479 H 1000 V 0 H 0 Z"
         id="path270" /></clipPath><clipPath
       clipPathUnits="userSpaceOnUse"
       id="clipPath280"><path
         d="M 256.844,255.46 H 767.831 V 11.5451 H 256.844 Z"
         id="path278" /></clipPath></defs><sodipodi:namedview
     id="namedview260"
     pagecolor="#505050"
     bordercolor="#eeeeee"
     borderopacity="1"
     inkscape:pageshadow="0"
     inkscape:pageopacity="0"
     inkscape:pagecheckerboard="0"
     showgrid="false"
     inkscape:zoom="0.41962503"
     inkscape:cx="176.34792"
     inkscape:cy="283.58652"
     inkscape:window-width="1857"
     inkscape:window-height="1057"
     inkscape:window-x="55"
     inkscape:window-y="-8"
     inkscape:window-maximized="1"
     inkscape:current-layer="g264"
     fit-margin-top="0"
     fit-margin-left="0"
     fit-margin-right="0"
     fit-margin-bottom="0" /><g
     id="g264"
     inkscape:groupmode="layer"
     inkscape:label="shellpad - Artwork"
     transform="matrix(1.3333333,0,0,-1.3333333,-201.20973,628.02976)"><g
       id="g266"><g
         id="g268"
         clip-path="url(#clipPath272)"><g
           id="g274"><g
             id="g276" /><g
             id="g288"><g
               clip-path="url(#clipPath280)"
               opacity="0.5"
               id="g286"><g
                 transform="translate(767.8306,133.5026)"
                 id="g284"><path
                   d="m 0,0 c 0,67.355 -114.388,121.957 -255.493,121.957 -141.105,0 -255.493,-54.602 -255.493,-121.957 0,-67.355 114.388,-121.957 255.493,-121.957 C -114.388,-121.957 0,-67.355 0,0"
                   style="fill:#7c7c7c;fill-opacity:1;fill-rule:nonzero;stroke:none"
                   id="path282" /></g></g></g></g><g
           id="g290"
           transform="translate(725.3499,264.4563)"><path
             d="m 0,0 c 54.695,-26.959 77.974,10.101 97.271,49.253 19.298,39.153 19.117,85.414 103.924,84.347 53.448,-0.672 66.617,0.891 67.399,-3.685 C 270.608,118.14 250.467,82.334 210.201,83.106 184.208,83.604 155.372,59.51 142.146,23.8 126.709,-17.882 68.046,-85.036 -50.052,-34.091 c 0,0 15.438,6.954 24.537,11.417 C -16.415,-18.212 0,0 0,0"
             style="fill:#2e5117;fill-opacity:1;fill-rule:nonzero;stroke:none"
             id="path292" /></g><g
           id="g294"
           transform="translate(725.3499,264.4563)"><path
             d="m 0,0 c 54.695,-26.959 77.974,10.101 97.271,49.253 19.298,39.153 19.117,85.414 103.924,84.347 53.448,-0.672 66.617,0.891 67.399,-3.685 C 270.608,118.14 250.467,82.334 210.201,83.106 184.208,83.604 155.372,59.51 142.146,23.8 126.709,-17.882 68.046,-85.036 -50.052,-34.091 c 0,0 15.438,6.954 24.537,11.417 C -16.415,-18.212 0,0 0,0 Z"
             style="fill:none;stroke:#3a3a3a;stroke-width:4;stroke-linecap:butt;stroke-linejoin:miter;stroke-miterlimit:10;stroke-dasharray:none;stroke-opacity:1"
             id="path296" /></g><g
           id="g298"
           transform="translate(722.1843,269.6247)"><path
             d="m 0,0 c 54.695,-26.959 83.474,46.815 98.537,87.785 18.987,51.646 13.648,107.303 92.686,111.511 56.91,3.03 82.357,-62.204 80.674,-81.992 C 270.131,96.532 241.714,86.171 210.665,96.977 157.05,115.637 148.059,105.645 130.306,71.682 116.003,44.319 70.242,-64.561 -30.682,-23.601 -17.754,-12.633 0,0 0,0"
             style="fill:#578937;fill-opacity:1;fill-rule:nonzero;stroke:none"
             id="path300" /></g><g
           id="g302"
           transform="translate(722.1843,269.6247)"><path
             d="m 0,0 c 54.695,-26.959 83.474,46.815 98.537,87.785 18.987,51.646 13.648,107.303 92.686,111.511 56.91,3.03 82.357,-62.204 80.674,-81.992 C 270.131,96.532 241.714,86.171 210.665,96.977 157.05,115.637 148.059,105.645 130.306,71.682 116.003,44.319 70.242,-64.561 -30.682,-23.601 -17.754,-12.633 0,0 0,0 Z"
             style="fill:none;stroke:#3a3a3a;stroke-width:4;stroke-linecap:butt;stroke-linejoin:miter;stroke-miterlimit:10;stroke-dasharray:none;stroke-opacity:1"
             id="path304" /></g><g
           id="g306"
           transform="translate(944.3592,421.075)"><path
             d="M 0,0 C 0.867,18.283 -13.251,33.806 -31.534,34.673 -49.816,35.54 -65.34,21.422 -66.207,3.14 -67.074,-15.143 -52.956,-30.667 -34.673,-31.534 -16.391,-32.401 -0.867,-18.283 0,0"
             style="fill:#578937;fill-opacity:1;fill-rule:nonzero;stroke:none"
             id="path308" /></g><g
           id="g310"
           transform="translate(944.3592,421.075)"><path
             d="M 0,0 C 0.867,18.283 -13.251,33.806 -31.534,34.673 -49.816,35.54 -65.34,21.422 -66.207,3.14 -67.074,-15.143 -52.956,-30.667 -34.673,-31.534 -16.391,-32.401 -0.867,-18.283 0,0 Z"
             style="fill:none;stroke:#3a3a3a;stroke-width:4;stroke-linecap:butt;stroke-linejoin:miter;stroke-miterlimit:10;stroke-dasharray:none;stroke-opacity:1"
             id="path312" /></g><g
           id="g314"
           transform="translate(943.9872,415.3472)"><path
             d="m 0,0 c 0.815,17.19 -12.46,31.787 -29.65,32.602 -17.19,0.815 -31.787,-12.46 -32.602,-29.65 -0.815,-17.19 12.46,-31.787 29.65,-32.602 C -15.411,-30.465 -0.815,-17.19 0,0"
             style="fill:#ebf7e4;fill-opacity:1;fill-rule:nonzero;stroke:none"
             id="path316" /></g><g
           id="g318"
           transform="translate(943.9872,415.3472)"><path
             d="m 0,0 c 0.815,17.19 -12.46,31.787 -29.65,32.602 -17.19,0.815 -31.787,-12.46 -32.602,-29.65 -0.815,-17.19 12.46,-31.787 29.65,-32.602 C -15.411,-30.465 -0.815,-17.19 0,0 Z"
             style="fill:none;stroke:#3a3a3a;stroke-width:5;stroke-linecap:butt;stroke-linejoin:miter;stroke-miterlimit:10;stroke-dasharray:none;stroke-opacity:1"
             id="path320" /></g><g
           id="g322"
           transform="translate(929.3096,416.0432)"><path
             d="m 0,0 c 0.431,9.084 -6.584,16.798 -15.668,17.228 -9.085,0.431 -16.798,-6.584 -17.229,-15.668 -0.43,-9.084 6.585,-16.798 15.669,-17.228 C -8.144,-16.099 -0.431,-9.084 0,0"
             style="fill:#3a3a3a;fill-opacity:1;fill-rule:nonzero;stroke:none"
             id="path324" /></g><g
           id="g326"
           transform="translate(314.9994,197.4879)"><path
             d="m 0,0 -19.806,-68.914 c -3.768,-13.109 10.457,-23.721 31.772,-23.701 21.314,0.02 41.648,10.664 45.416,23.773 L 77.188,0.072 Z"
             style="fill:#2e5117;fill-opacity:1;fill-rule:nonzero;stroke:none"
             id="path328" /></g><g
           id="g330"
           transform="translate(314.9994,197.4879)"><path
             d="m 0,0 -19.806,-68.914 c -3.768,-13.109 10.457,-23.721 31.772,-23.701 21.314,0.02 41.648,10.664 45.416,23.773 L 77.188,0.072 Z"
             style="fill:none;stroke:#3a3a3a;stroke-width:4;stroke-linecap:butt;stroke-linejoin:miter;stroke-miterlimit:10;stroke-dasharray:none;stroke-opacity:1"
             id="path332" /></g><g
           id="g334"
           transform="translate(703.6858,197.4879)"><path
             d="m 0,0 19.806,-68.914 c 3.768,-13.109 -10.457,-23.721 -31.772,-23.701 -21.314,0.02 -41.648,10.664 -45.416,23.773 L -77.188,0.072 Z"
             style="fill:#2e5117;fill-opacity:1;fill-rule:nonzero;stroke:none"
             id="path336" /></g><g
           id="g338"
           transform="translate(703.6858,197.4879)"><path
             d="m 0,0 19.806,-68.914 c 3.768,-13.109 -10.457,-23.721 -31.772,-23.701 -21.314,0.02 -41.648,10.664 -45.416,23.773 L -77.188,0.072 Z"
             style="fill:none;stroke:#3a3a3a;stroke-width:4;stroke-linecap:butt;stroke-linejoin:miter;stroke-miterlimit:10;stroke-dasharray:none;stroke-opacity:1"
             id="path340" /></g><g
           id="g342"
           transform="translate(286.1853,252.9624)"><path
             d="m 0,0 1.083,10.824 c 0.349,5.056 -3.385,6.832 -8.297,7.72 l -62.838,-2.263 c -3.74,-0.135 -7.447,0.703 -10.762,2.441 -14.983,7.857 -52.464,39.134 -52.464,33.337 0,-9.722 16.088,-31.771 27.015,-38.764 C -93.398,5.062 -78.796,1.094 -66.086,-1.029 -38.21,-5.685 -9.801,-5.643 -9.801,-5.643 -4.888,-6.531 -0.349,-5.057 0,0"
             style="fill:#2e5117;fill-opacity:1;fill-rule:nonzero;stroke:none"
             id="path344" /></g><g
           id="g346"
           transform="translate(286.1853,252.9624)"><path
             d="m 0,0 1.083,10.824 c 0.349,5.056 -3.385,6.832 -8.297,7.72 l -62.838,-2.263 c -3.74,-0.135 -7.447,0.703 -10.762,2.441 -14.983,7.857 -52.464,39.134 -52.464,33.337 0,-9.722 16.088,-31.771 27.015,-38.764 C -93.398,5.062 -78.796,1.094 -66.086,-1.029 -38.21,-5.685 -9.801,-5.643 -9.801,-5.643 -4.888,-6.531 -0.349,-5.057 0,0 Z"
             style="fill:none;stroke:#3a3a3a;stroke-width:4;stroke-linecap:butt;stroke-linejoin:miter;stroke-miterlimit:10;stroke-dasharray:none;stroke-opacity:1"
             id="path348" /></g><g
           id="g350"
           transform="translate(274.8643,274.921)"><path
             d="m 0,0 -1.801,8.575 c 0.532,4.129 -0.992,10.204 -5.658,10.734 0,0 -23.696,-6.2 -49.649,-3.28 -20.648,2.323 -64.849,19.28 -64.849,14.071 0,-16.379 39.726,-31.674 59.692,-35.419 20.581,-3.86 56.605,-7.204 56.605,-7.204 C -0.994,-13.053 -0.532,-4.129 0,0"
             style="fill:#578937;fill-opacity:1;fill-rule:nonzero;stroke:none"
             id="path352" /></g><g
           id="g354"
           transform="translate(274.8643,274.921)"><path
             d="m 0,0 -1.801,8.575 c 0.532,4.129 -0.992,10.204 -5.658,10.734 0,0 -23.696,-6.2 -49.649,-3.28 -20.648,2.323 -64.849,19.28 -64.849,14.071 0,-16.379 39.726,-31.674 59.692,-35.419 20.581,-3.86 56.605,-7.204 56.605,-7.204 C -0.994,-13.053 -0.532,-4.129 0,0 Z"
             style="fill:none;stroke:#3a3a3a;stroke-width:4;stroke-linecap:butt;stroke-linejoin:miter;stroke-miterlimit:10;stroke-dasharray:none;stroke-opacity:1"
             id="path356" /></g><g
           id="g358"
           transform="translate(764.3255,305.0213)"><path
             d="M 0,0 C 0.563,-3.296 0.88,-6.63 0.942,-9.988 0.857,-6.7 0.54,-3.365 0,0"
             style="fill:#385b21;fill-opacity:1;fill-rule:nonzero;stroke:none"
             id="path360" /></g><g
           id="g362"
           transform="translate(765.2672,293.5743)"><path
             d="M 0,0 V -0.147 C 0,0.386 -0.008,0.919 -0.023,1.459 -0.008,0.973 0,0.486 0,0"
             style="fill:#385b21;fill-opacity:1;fill-rule:nonzero;stroke:none"
             id="path364" /></g><g
           id="g366"
           transform="translate(768.3627,273.6963)"><path
             d="m 0,0 c 0,-0.051 0,-0.094 -0.007,-0.145 -0.297,-70.052 -114.689,-126.787 -255.756,-126.787 -141.06,0 -255.451,56.735 -255.748,126.787 -0.008,0.051 -0.008,0.094 -0.008,0.145 0,0.5 0.008,1 0.022,1.507 0.08,3.086 0.377,6.216 0.884,9.375 10.976,68.422 120.883,150.558 254.85,150.558 133.975,0 243.881,-82.136 254.857,-150.558 C -0.398,7.723 -0.101,4.593 -0.022,1.507 -0.007,1 0,0.5 0,0"
             style="fill:#2e5117;fill-opacity:1;fill-rule:nonzero;stroke:none"
             id="path368" /></g><g
           id="g370"
           transform="translate(768.3627,273.6963)"><path
             d="m 0,0 c 0,-0.051 0,-0.094 -0.007,-0.145 -0.297,-70.052 -114.689,-126.787 -255.756,-126.787 -141.06,0 -255.451,56.735 -255.748,126.787 -0.008,0.051 -0.008,0.094 -0.008,0.145 0,0.5 0.008,1 0.022,1.507 0.08,3.086 0.377,6.216 0.884,9.375 10.976,68.422 120.883,150.558 254.85,150.558 133.975,0 243.881,-82.136 254.857,-150.558 C -0.398,7.723 -0.101,4.593 -0.022,1.507 -0.007,1 0,0.5 0,0 Z"
             style="fill:none;stroke:#3a3a3a;stroke-width:4;stroke-linecap:butt;stroke-linejoin:miter;stroke-miterlimit:10;stroke-dasharray:none;stroke-opacity:1"
             id="path372" /></g><g
           id="g374"
           transform="translate(764.5184,297.1122)"><path
             d="m 0,0 c 0,-0.05 0,-0.093 -0.007,-0.143 -0.293,-68.999 -112.965,-124.881 -251.912,-124.881 -138.939,0 -251.611,55.882 -251.904,124.881 -0.007,0.05 -0.007,0.093 -0.007,0.143 0,0.492 0.007,0.985 0.021,1.484 0.079,3.04 0.372,6.123 0.871,9.234 10.811,67.394 119.066,148.296 251.019,148.296 131.961,0 240.216,-80.902 251.027,-148.296 C -0.393,7.607 -0.1,4.524 -0.021,1.484 -0.007,0.985 0,0.492 0,0"
             style="fill:#578937;fill-opacity:1;fill-rule:nonzero;stroke:none"
             id="path376" /></g><g
           id="g378"
           transform="translate(764.5184,297.1122)"><path
             d="m 0,0 c 0,-0.05 0,-0.093 -0.007,-0.143 -0.293,-68.999 -112.965,-124.881 -251.912,-124.881 -138.939,0 -251.611,55.882 -251.904,124.881 -0.007,0.05 -0.007,0.093 -0.007,0.143 0,0.492 0.007,0.985 0.021,1.484 0.079,3.04 0.372,6.123 0.871,9.234 10.811,67.394 119.066,148.296 251.019,148.296 131.961,0 240.216,-80.902 251.027,-148.296 C -0.393,7.607 -0.1,4.524 -0.021,1.484 -0.007,0.985 0,0.492 0,0 Z"
             style="fill:none;stroke:#3a3a3a;stroke-width:4;stroke-linecap:butt;stroke-linejoin:miter;stroke-miterlimit:10;stroke-dasharray:none;stroke-opacity:1"
             id="path380" /></g><g
           id="g382"
           transform="translate(220.318,293.4276)"><path
             d="M 0,0 C 0,-0.054 0,-0.1 0.008,-0.154 H 0 Z"
             style="fill:#385b21;fill-opacity:1;fill-rule:nonzero;stroke:none"
             id="path384" /></g><g
           id="g386"
           transform="translate(765.2903,293.4276)"><path
             d="M 0,0 V -0.154 H -0.008 C 0,-0.1 0,-0.054 0,0"
             style="fill:#385b21;fill-opacity:1;fill-rule:nonzero;stroke:none"
             id="path388" /></g><g
           id="g390"
           transform="translate(758.3202,300.0273)"><path
             d="m 0,0 c 0,27.181 -30.489,75.066 -96.409,113.603 -61.245,35.804 -104.19,43.114 -104.19,15.933 0,-27.181 44.979,-75.061 106.234,-110.849 C -35.475,-15.72 0,-27.181 0,0"
             style="fill:#578937;fill-opacity:1;fill-rule:nonzero;stroke:none"
             id="path392" /></g><g
           id="g394"
           transform="translate(758.3202,300.0273)"><path
             d="m 0,0 c 0,27.181 -30.489,75.066 -96.409,113.603 -61.245,35.804 -104.19,43.114 -104.19,15.933 0,-27.181 44.979,-75.061 106.234,-110.849 C -35.475,-15.72 0,-27.181 0,0 Z"
             style="fill:none;stroke:#3a3a3a;stroke-width:4;stroke-linecap:butt;stroke-linejoin:miter;stroke-miterlimit:10;stroke-dasharray:none;stroke-opacity:1"
             id="path396" /></g><g
           id="g398"
           transform="translate(267.493,300.0273)"><path
             d="m 0,0 c 0,27.181 30.489,75.066 96.409,113.603 61.245,35.804 104.19,43.114 104.19,15.933 C 200.599,102.355 155.62,54.475 94.365,18.687 35.475,-15.72 0,-27.181 0,0"
             style="fill:#578937;fill-opacity:1;fill-rule:nonzero;stroke:none"
             id="path400" /></g><g
           id="g402"
           transform="translate(267.493,300.0273)"><path
             d="m 0,0 c 0,27.181 30.489,75.066 96.409,113.603 61.245,35.804 104.19,43.114 104.19,15.933 C 200.599,102.355 155.62,54.475 94.365,18.687 35.475,-15.72 0,-27.181 0,0 Z"
             style="fill:none;stroke:#3a3a3a;stroke-width:4;stroke-linecap:butt;stroke-linejoin:miter;stroke-miterlimit:10;stroke-dasharray:none;stroke-opacity:1"
             id="path404" /></g><g
           id="g406"
           transform="translate(753.0559,287.3684)"><path
             d="m 0,0 c -0.81,-0.564 -1.706,-1.019 -2.694,-1.382 l -84.668,-43.403 -150.517,52.45 -155.148,-52.45 -0.371,0.193 -83.34,42.716 c -2.215,0.541 -4.068,1.475 -5.527,2.833 l -0.015,0.008 c -2.671,2.47 -4.052,6.329 -4.052,11.694 0,27.178 30.489,75.065 96.408,113.606 45.371,26.521 80.7,37.405 95.96,30.211 l 0.016,-0.008 0.023,-0.007 56.046,-21.042 0.255,-0.092 49.509,20.632 0.007,0.008 c 1.089,0.609 2.293,1.111 3.605,1.505 16.449,4.994 50.396,-6.098 93.359,-31.207 C -25.225,87.724 5.264,39.837 5.264,12.659 5.264,6.538 3.466,2.377 0,0 m 11.439,11.231 c -0.077,3.033 -0.37,6.121 -0.872,9.232 -10.806,67.393 -119.063,148.294 -251.024,148.294 -131.953,0 -240.21,-80.901 -251.016,-148.294 -0.502,-3.111 -0.795,-6.199 -0.872,-9.232 -0.016,-0.502 -0.023,-0.996 -0.023,-1.49 0,-0.046 0,-0.092 0.007,-0.139 0.155,-35.931 30.783,-68.311 79.736,-91.09 45.039,-20.956 105.585,-33.793 172.168,-33.793 66.668,0 127.291,12.868 172.346,33.878 48.853,22.771 79.411,55.113 79.566,91.005 0.008,0.047 0.008,0.093 0.008,0.139 0,0.494 -0.008,0.988 -0.024,1.49"
             style="fill:#416629;fill-opacity:1;fill-rule:nonzero;stroke:none"
             id="path408" /></g><g
           id="g410"
           transform="translate(753.0559,287.3684)"><path
             d="m 0,0 c -0.81,-0.564 -1.706,-1.019 -2.694,-1.382 l -84.668,-43.403 -150.517,52.45 -155.148,-52.45 -0.371,0.193 -83.34,42.716 c -2.215,0.541 -4.068,1.475 -5.527,2.833 l -0.015,0.008 c -2.671,2.47 -4.052,6.329 -4.052,11.694 0,27.178 30.489,75.065 96.408,113.606 45.371,26.521 80.7,37.405 95.96,30.211 l 0.016,-0.008 0.023,-0.007 56.046,-21.042 0.255,-0.092 49.509,20.632 0.007,0.008 c 1.089,0.609 2.293,1.111 3.605,1.505 16.449,4.994 50.396,-6.098 93.359,-31.207 C -25.225,87.724 5.264,39.837 5.264,12.659 5.264,6.538 3.466,2.377 0,0 Z m 11.439,11.231 c -0.077,3.033 -0.37,6.121 -0.872,9.232 -10.806,67.393 -119.063,148.294 -251.024,148.294 -131.953,0 -240.21,-80.901 -251.016,-148.294 -0.502,-3.111 -0.795,-6.199 -0.872,-9.232 -0.016,-0.502 -0.023,-0.996 -0.023,-1.49 0,-0.046 0,-0.092 0.007,-0.139 0.155,-35.931 30.783,-68.311 79.736,-91.09 45.039,-20.956 105.585,-33.793 172.168,-33.793 66.668,0 127.291,12.868 172.346,33.878 48.853,22.771 79.411,55.113 79.566,91.005 0.008,0.047 0.008,0.093 0.008,0.139 0,0.494 -0.008,0.988 -0.024,1.49 z"
             style="fill:none;stroke:#3a3a3a;stroke-width:4;stroke-linecap:butt;stroke-linejoin:miter;stroke-miterlimit:10;stroke-dasharray:none;stroke-opacity:1"
             id="path412" /></g><g
           id="g414"
           transform="translate(663.4617,382.4656)"><path
             d="m 0,0 c 11.12,-6.339 19.696,-6.282 19.696,0.057 0,0.903 0.25,1.831 -0.096,2.872 V 15.012 L -19.766,37.493 V 22.602 L -19.93,22.495 C -19.516,16.128 -10.856,6.188 0,0"
             style="fill:#73ad4e;fill-opacity:1;fill-rule:nonzero;stroke:none"
             id="path416" /></g><g
           id="g418"
           transform="translate(663.4617,382.4656)"><path
             d="m 0,0 c 11.12,-6.339 19.696,-6.282 19.696,0.057 0,0.903 0.25,1.831 -0.096,2.872 V 15.012 L -19.766,37.493 V 22.602 L -19.93,22.495 C -19.516,16.128 -10.856,6.188 0,0 Z"
             style="fill:none;stroke:#3a3a3a;stroke-width:5;stroke-linecap:butt;stroke-linejoin:miter;stroke-miterlimit:10;stroke-dasharray:none;stroke-opacity:1"
             id="path420" /></g><g
           id="g422"
           transform="translate(728.6027,346.5332)"><path
             d="M 0,0 -40.138,22.609 V 9.723 c -0.221,-0.555 -0.343,-1.188 -0.343,-1.906 0,-6.339 9.015,-16.616 20.135,-22.955 11.12,-6.339 20.135,-6.339 20.135,0 0,0.198 0.211,0.472 0.211,0.472 z"
             style="fill:#416629;fill-opacity:1;fill-rule:nonzero;stroke:none"
             id="path424" /></g><g
           id="g426"
           transform="translate(728.6027,346.5332)"><path
             d="M 0,0 -40.138,22.609 V 9.723 c -0.221,-0.555 -0.343,-1.188 -0.343,-1.906 0,-6.339 9.015,-16.616 20.135,-22.955 11.12,-6.339 20.135,-6.339 20.135,0 0,0.198 0.211,0.472 0.211,0.472 z"
             style="fill:none;stroke:#3a3a3a;stroke-width:5;stroke-linecap:butt;stroke-linejoin:miter;stroke-miterlimit:10;stroke-dasharray:none;stroke-opacity:1"
             id="path428" /></g><g
           id="g430"
           transform="translate(643.6956,356.3241)"><path
             d="m 0,0 c -0.239,-0.571 -0.369,-1.227 -0.369,-1.974 0,-6.339 9.015,-16.616 20.135,-22.955 11.12,-6.339 20.135,-6.339 20.135,0 0,0.203 0.237,0.472 0.237,0.472 V -9.791 L 0,12.818 Z"
             style="fill:#416629;fill-opacity:1;fill-rule:nonzero;stroke:none"
             id="path432" /></g><g
           id="g434"
           transform="translate(643.6956,356.3241)"><path
             d="m 0,0 c -0.239,-0.571 -0.369,-1.227 -0.369,-1.974 0,-6.339 9.015,-16.616 20.135,-22.955 11.12,-6.339 20.135,-6.339 20.135,0 0,0.203 0.237,0.472 0.237,0.472 V -9.791 L 0,12.818 Z"
             style="fill:none;stroke:#3a3a3a;stroke-width:5;stroke-linecap:butt;stroke-linejoin:miter;stroke-miterlimit:10;stroke-dasharray:none;stroke-opacity:1"
             id="path436" /></g><g
           id="g438"
           transform="translate(598.9265,407.4624)"><path
             d="m 0,0 c -0.257,-0.586 -0.394,-1.265 -0.394,-2.041 0,-6.339 9.014,-16.617 20.134,-22.956 11.12,-6.339 20.135,-6.339 20.135,0 0,0.165 0.263,0.346 0.263,0.346 V -9.985 L 0,12.624 Z"
             style="fill:#73ad4e;fill-opacity:1;fill-rule:nonzero;stroke:none"
             id="path440" /></g><g
           id="g442"
           transform="translate(598.9265,407.4624)"><path
             d="m 0,0 c -0.257,-0.586 -0.394,-1.265 -0.394,-2.041 0,-6.339 9.014,-16.617 20.134,-22.956 11.12,-6.339 20.135,-6.339 20.135,0 0,0.165 0.263,0.346 0.263,0.346 V -9.985 L 0,12.624 Z"
             style="fill:none;stroke:#3a3a3a;stroke-width:5;stroke-linecap:butt;stroke-linejoin:miter;stroke-miterlimit:10;stroke-dasharray:none;stroke-opacity:1"
             id="path444" /></g><g
           id="g446"
           transform="translate(683.5965,346.0608)"><path
             d="m 0,0 c 0,-6.339 -9.015,-6.339 -20.135,0 -11.12,6.339 -20.134,16.616 -20.134,22.955 0,6.339 9.014,6.339 20.134,0 C -9.015,16.616 0,6.339 0,0"
             style="fill:#73ad4e;fill-opacity:1;fill-rule:nonzero;stroke:none"
             id="path448" /></g><g
           id="g450"
           transform="translate(683.5965,346.0608)"><path
             d="m 0,0 c 0,-6.339 -9.015,-6.339 -20.135,0 -11.12,6.339 -20.134,16.616 -20.134,22.955 0,6.339 9.014,6.339 20.134,0 C -9.015,16.616 0,6.339 0,0 Z"
             style="fill:none;stroke:#3a3a3a;stroke-width:5;stroke-linecap:butt;stroke-linejoin:miter;stroke-miterlimit:10;stroke-dasharray:none;stroke-opacity:1"
             id="path452" /></g><g
           id="g454"
           transform="translate(728.3915,346.0608)"><path
             d="m 0,0 c 0,-6.339 -9.015,-6.339 -20.135,0 -11.12,6.339 -20.134,16.616 -20.134,22.955 0,6.339 9.014,6.339 20.134,0 C -9.015,16.616 0,6.339 0,0"
             style="fill:#73ad4e;fill-opacity:1;fill-rule:nonzero;stroke:none"
             id="path456" /></g><g
           id="g458"
           transform="translate(728.3915,346.0608)"><path
             d="m 0,0 c 0,-6.339 -9.015,-6.339 -20.135,0 -11.12,6.339 -20.134,16.616 -20.134,22.955 0,6.339 9.014,6.339 20.134,0 C -9.015,16.616 0,6.339 0,0 Z"
             style="fill:none;stroke:#3a3a3a;stroke-width:5;stroke-linecap:butt;stroke-linejoin:miter;stroke-miterlimit:10;stroke-dasharray:none;stroke-opacity:1"
             id="path460" /></g><g
           id="g462"
           transform="translate(683.5965,397.1313)"><path
             d="m 0,0 c 0,-6.339 -9.015,-6.339 -20.135,0 -11.12,6.339 -20.134,16.617 -20.134,22.955 0,6.339 9.014,6.339 20.134,0 C -9.015,16.617 0,6.339 0,0"
             style="fill:#ebf7e4;fill-opacity:1;fill-rule:nonzero;stroke:none"
             id="path464" /></g><g
           id="g466"
           transform="translate(683.5965,397.1313)"><path
             d="m 0,0 c 0,-6.339 -9.015,-6.339 -20.135,0 -11.12,6.339 -20.134,16.617 -20.134,22.955 0,6.339 9.014,6.339 20.134,0 C -9.015,16.617 0,6.339 0,0 Z"
             style="fill:none;stroke:#3a3a3a;stroke-width:5;stroke-linecap:butt;stroke-linejoin:miter;stroke-miterlimit:10;stroke-dasharray:none;stroke-opacity:1"
             id="path468" /></g><g
           id="g470"
           transform="translate(638.8015,397.1313)"><path
             d="m 0,0 c 0,-6.339 -9.015,-6.339 -20.135,0 -11.12,6.339 -20.134,16.617 -20.134,22.955 0,6.339 9.014,6.339 20.134,0 C -9.015,16.617 0,6.339 0,0"
             style="fill:#ebf7e4;fill-opacity:1;fill-rule:nonzero;stroke:none"
             id="path472" /></g><g
           id="g474"
           transform="translate(638.8015,397.1313)"><path
             d="m 0,0 c 0,-6.339 -9.015,-6.339 -20.135,0 -11.12,6.339 -20.134,16.617 -20.134,22.955 0,6.339 9.014,6.339 20.134,0 C -9.015,16.617 0,6.339 0,0 Z"
             style="fill:none;stroke:#3a3a3a;stroke-width:5;stroke-linecap:butt;stroke-linejoin:miter;stroke-miterlimit:10;stroke-dasharray:none;stroke-opacity:1"
             id="path476" /></g><g
           id="g478"
           transform="translate(380.4836,383.1914)"><path
             d="m 0,0 v 5.984 c 0,1.813 -1.947,1.935 -4.915,0.061 l -28.112,-17.6 c -2.969,-1.874 -5.567,-5.038 -5.567,-6.851 v -6.124 l -37.822,-24.039 v 6.508 c 0,0 0.013,0.003 0.024,0.006 -0.013,-0.099 -0.024,-0.196 -0.024,-0.289 v -17.031 c 0,-1.813 2.533,-1.587 5.501,0.286 l 32.321,20.473 v -19.813 c 0,-1.813 2.848,-2.11 5.816,-0.236 l 27.626,17.6 C -2.183,-39.191 0,-35.851 0,-34.038 v 19.813 L 32.157,6.203 c 2.969,1.874 4.893,4.671 4.893,6.484 v 0.055 16.976 -6.169 z"
             style="fill:#73ad4e;fill-opacity:1;fill-rule:nonzero;stroke:none"
             id="path480" /></g><g
           id="g482"
           transform="translate(380.4836,383.1914)"><path
             d="m 0,0 v 5.984 c 0,1.813 -1.947,1.935 -4.915,0.061 l -28.112,-17.6 c -2.969,-1.874 -5.567,-5.038 -5.567,-6.851 v -6.124 l -37.822,-24.039 v 6.508 c 0,0 0.013,0.003 0.024,0.006 -0.013,-0.099 -0.024,-0.196 -0.024,-0.289 v -17.031 c 0,-1.813 2.533,-1.587 5.501,0.286 l 32.321,20.473 v -19.813 c 0,-1.813 2.848,-2.11 5.816,-0.236 l 27.626,17.6 C -2.183,-39.191 0,-35.851 0,-34.038 v 19.813 L 32.157,6.203 c 2.969,1.874 4.893,4.671 4.893,6.484 v 0.055 16.976 -6.169 z"
             style="fill:none;stroke:#3a3a3a;stroke-width:5;stroke-linecap:butt;stroke-linejoin:miter;stroke-miterlimit:10;stroke-dasharray:none;stroke-opacity:1"
             id="path484" /></g><g
           id="g486"
           transform="translate(412.6406,428.2546)"><path
             d="m 0,0 -32.157,-20.429 v 19.944 c 0,1.813 -1.947,1.935 -4.915,0.061 l -28.112,-17.6 c -2.969,-1.874 -5.567,-5.038 -5.567,-6.851 v -19.944 l -32.321,-20.473 c -2.968,-1.874 -5.501,-4.865 -5.501,-6.678 v -17.031 c 0,-1.813 2.533,-1.587 5.501,0.287 l 32.321,20.473 v -19.813 c 0,-1.813 2.848,-2.11 5.817,-0.237 l 27.625,17.601 c 2.969,1.873 5.152,5.213 5.152,7.026 v 19.813 L 0,-23.422 c 2.969,1.873 4.893,4.67 4.893,6.483 V 0.092 C 4.893,1.905 2.969,1.874 0,0"
             style="fill:#ebf7e4;fill-opacity:1;fill-rule:nonzero;stroke:none"
             id="path488" /></g><g
           id="g490"
           transform="translate(412.6406,428.2546)"><path
             d="m 0,0 -32.157,-20.429 v 19.944 c 0,1.813 -1.947,1.935 -4.915,0.061 l -28.112,-17.6 c -2.969,-1.874 -5.567,-5.038 -5.567,-6.851 v -19.944 l -32.321,-20.473 c -2.968,-1.874 -5.501,-4.865 -5.501,-6.678 v -17.031 c 0,-1.813 2.533,-1.587 5.501,0.287 l 32.321,20.473 v -19.813 c 0,-1.813 2.848,-2.11 5.817,-0.237 l 27.625,17.601 c 2.969,1.873 5.152,5.213 5.152,7.026 v 19.813 L 0,-23.422 c 2.969,1.873 4.893,4.67 4.893,6.483 V 0.092 C 4.893,1.905 2.969,1.874 0,0 Z"
             style="fill:none;stroke:#3a3a3a;stroke-width:5;stroke-linecap:butt;stroke-linejoin:miter;stroke-miterlimit:10;stroke-dasharray:none;stroke-opacity:1"
             id="path492" /></g><g
           id="g494"
           transform="translate(515.1772,456.1405)"><path
             d="M 0,0 V -161.107 -284.053"
             style="fill:none;stroke:#3a3a3a;stroke-width:6;stroke-linecap:butt;stroke-linejoin:miter;stroke-miterlimit:10;stroke-dasharray:none;stroke-opacity:1"
             id="path496" /></g><g
           id="g498"
           transform="translate(340.4298,205.8828)"><path
             d="M 0,0 19.599,36.446"
             style="fill:none;stroke:#3a3a3a;stroke-width:6;stroke-linecap:butt;stroke-linejoin:miter;stroke-miterlimit:10;stroke-dasharray:none;stroke-opacity:1"
             id="path500" /></g><g
           id="g502"
           transform="translate(684.9913,205.8828)"><path
             d="M 0,0 -19.599,36.704"
             style="fill:none;stroke:#3a3a3a;stroke-width:6;stroke-linecap:butt;stroke-linejoin:miter;stroke-miterlimit:10;stroke-dasharray:none;stroke-opacity:1"
             id="path504" /></g></g></g></g></svg>
